<?xml version="1.0" encoding="UTF-8"?>
<svg width="49px" height="49px" viewBox="0 0 49 49" version="1.1" xmlns="http://www.w3.org/2000/svg" xmlns:xlink="http://www.w3.org/1999/xlink">
    <!-- Generator: Sketch 53.2 (72643) - https://sketchapp.com -->
    <title>icon_coffee</title>
    <desc>Created with Sketch.</desc>
    <g id="H5页面设计" stroke="none" stroke-width="1" fill="none" fill-rule="evenodd" opacity="0.9">
        <g id="主菜单+平面规划图" transform="translate(-297.000000, -1018.000000)" fill="#FFFFFF" fill-rule="nonzero">
            <g id="icon_coffee" transform="translate(297.000000, 1018.000000)">
                <path d="M48.0429688,19.9620969 L40.1953125,19.9620969 L40.1953125,17.950186 C40.1953125,17.4252281 39.7667539,16.9996919 39.2382813,16.9996919 L8.32617188,16.9996919 C7.79769922,16.9996919 8.75776169,17.4252281 8.75776169,17.950186 C8.75776169,18.4751439 7.79769922,18.9006801 8.32617188,18.9006801 L38.28125,18.9006801 L38.28125,26.1877382 C38.28125,32.589126 34.8400527,38.5386488 29.2834336,41.7758416 L10.9118789,41.7758416 C5.35525977,38.5387438 1.9140625,32.589126 1.9140625,26.1878333 L1.9140625,18.9007752 L8.32617187,18.9007752 C8.85464453,18.9007752 9.28320313,18.475239 9.28320313,17.9502811 C9.28320313,17.4253232 8.85464453,16.9997869 8.32617187,16.9997869 L0.95703125,16.9997869 C0.428558594,16.9997869 0,17.4253232 0,17.9502811 L0,26.1878333 C0,29.780701 0.97234375,33.3036124 2.81194922,36.3755143 C4.05254883,38.4473063 5.66227539,40.2768174 7.54733984,41.7759367 L0.95703125,41.7759367 C0.428558594,41.7759367 0,42.2014729 0,42.7264308 C0,46.185564 2.83348242,48.9996919 6.31640625,48.9996919 L36.1757812,48.9996919 C39.6587051,48.9996919 42.4921875,46.185564 42.4921875,42.7264308 C42.4921875,42.2014729 42.0636289,41.7759367 41.5351563,41.7759367 L32.6479727,41.7759367 C34.3829746,40.3961994 35.8838867,38.7359714 37.0792188,36.8650188 L39.7806309,36.8650188 C44.8641895,36.8650188 49,32.7574585 49,27.7086239 L49,20.912591 C49,20.3876331 48.5715371,19.9620969 48.0429688,19.9620969 Z M40.6792453,43.5139776 C40.2473692,45.6038316 38.5119407,47.1711205 36.44303,47.1711205 L7.00980023,47.1711205 C4.94088946,47.1711205 3.20555529,45.6038316 2.77358491,43.5139776 L11.2869579,43.5139776 L29.9017777,43.5139776 L40.6792453,43.5139776 Z M40.3873545,25.7499625 L40.3873545,25.2282633 L43.4528302,25.2282633 L43.4528302,27.2676328 C43.4528302,29.1679458 41.8914493,30.7139776 39.97227,30.7139776 L39.754717,30.7139776 C40.172867,29.1008838 40.3873545,27.4331538 40.3873545,25.7499625 Z M47.1509434,28.1966655 C47.1509434,32.1053956 43.7596627,35.2854062 39.5912486,35.2854062 L37.9056604,35.2854062 C38.2218815,34.679827 38.5043314,34.0598535 38.7511285,33.4280861 L39.5912486,33.4280861 C42.6675956,33.4280861 45.1702287,31.0812693 45.1702287,28.1966655 L45.1702287,25.2713863 C45.1702287,24.7584874 44.7267467,24.3427263 44.1798713,24.3427263 L40.0203704,24.3427263 L40.0203704,22.4854062 L47.1509434,22.4854062 L47.1509434,28.1966655 Z" id="Shape"></path>
                <path d="M20.6138122,5.39597521 L20.0065673,4.75900773 C19.1151323,3.82417775 19.1138485,2.51738529 20.0034161,1.58119031 C20.4042001,1.15940532 20.3197016,0.546130341 19.8148119,0.21141285 C19.3098054,-0.123499641 18.5758129,-0.0528121426 18.175029,0.368972846 C16.606206,2.0202328 16.6085402,4.32503524 18.1807478,5.97395519 L18.7879927,6.61092267 C19.9528805,7.83259764 19.9546311,9.54031009 18.7921942,10.7638376 L18.1698937,11.4188425 C17.7691097,11.8406275 17.8536082,12.4539025 18.3584979,12.78862 C18.5731286,12.9308725 18.8290748,13 19.0832703,13 C19.4270995,13 19.7677776,12.87364 19.9982808,12.63106 L20.6205814,11.976055 C22.4622735,10.0375601 22.4595892,7.33174016 20.6138122,5.39597521 Z" id="Path"></path>
                <path d="M26.6138966,7.39597521 L26.0066375,6.75910523 C25.1151817,5.82417775 25.1138978,4.51738529 26.0034863,3.58119031 C26.4042796,3.15940532 26.3197792,2.54613034 25.8148777,2.21141285 C25.3098594,1.87650036 24.5758497,1.94718786 24.1750564,2.36897285 C22.6061968,4.0202328 22.6085311,6.32503524 24.1807754,7.97405269 L24.7880344,8.61102017 C25.9528327,9.83279264 25.9545834,11.5406026 24.7921194,12.7640326 L24.169921,13.41894 C23.7691277,13.840725 23.8536281,14.454 24.3585297,14.7887175 C24.5731653,14.93097 24.8291175,15 25.083319,15 C25.4271562,15 25.7679589,14.8735425 25.9983509,14.63106 L26.6204326,13.9761525 C28.4622845,12.0377551 28.4596001,9.33193516 26.6138966,7.39597521 Z" id="Path"></path>
                <path d="M15.8911121,7.39597266 L15.4053077,6.75910247 C14.6921472,5.82427218 14.6911201,4.51738178 15.4026933,3.58118649 C15.7233261,3.15940136 15.6557262,2.54612617 15.2518073,2.21131107 C14.847795,1.87649596 14.2605907,1.94728099 13.939958,2.36887112 C12.684971,4.02013162 12.6868384,6.32503233 13.9446265,7.97395284 L14.4304309,8.61092054 C15.3622641,9.83269341 15.3636646,11.5405039 14.4337922,12.7638368 L13.9359431,13.4187445 C13.6153103,13.8405296 13.6828168,14.4538048 14.0867357,14.7886199 C14.2584432,14.9308725 14.4631104,15 14.6665638,15 C14.941632,15 15.2141792,14.87364 15.3984916,14.6311574 L15.8964342,13.9761522 C17.3698137,12.0377541 17.3676662,9.33193326 15.8911121,7.39597266 Z" id="Path"></path>
                <path d="M14.707,17.293 C14.521,17.107 14.263,17 14,17 C13.737,17 13.479,17.107 13.293,17.293 C13.1071,17.48 13,17.737 13,18 C13,18.263 13.107,18.521 13.293,18.708 C13.479,18.894 13.737,19 14,19 C14.263,19 14.521,18.894 14.707,18.708 C14.8939,18.521 15,18.264 15,18 C15,17.737 14.8939,17.479 14.707,17.293 Z" id="Path"></path>
            </g>
        </g>
    </g>
</svg>