<?xml version="1.0" encoding="UTF-8"?>
<svg width="75px" height="30px" viewBox="0 0 75 30" version="1.1" xmlns="http://www.w3.org/2000/svg" xmlns:xlink="http://www.w3.org/1999/xlink">
    <!-- Generator: Sketch 53.2 (72643) - https://sketchapp.com -->
    <title>icon_car</title>
    <desc>Created with Sketch.</desc>
    <g id="H5页面设计" stroke="none" stroke-width="1" fill="none" fill-rule="evenodd" opacity="0.9">
        <g id="主菜单+平面规划图" transform="translate(-32.000000, -1030.000000)" fill="#FFFFFF" fill-rule="nonzero">
            <g id="icon_car" transform="translate(32.000000, 1030.000000)">
                <polygon id="Path" points="31 11 36 11 36 14 31 14"></polygon>
                <path d="M73.92728,7.51171395 L65.4362756,6.29926538 C63.8880177,5.34822553 62.2812678,4.496867 60.6246725,3.7497668 C55.15389,1.27197761 49.2161888,-0.00658609252 43.2098229,2.55115873e-05 L41.7348073,2.55115873e-05 C34.6465938,0.00511122069 27.6718038,1.78360643 21.4462201,5.1732749 L17.1610451,7.51069686 C12.1449744,7.56714885 7.22554266,8.90114746 2.8676341,11.3850396 C1.0965979,12.4006687 0.00305175669,14.2849481 0,16.3258693 L0,23.7475395 C0,24.4381876 0.559488727,24.9976229 1.25020293,24.9976229 L5.44738576,24.9976229 C6.81253812,28.8918002 11.0763509,30.9423843 14.970901,29.5773625 C17.1147601,28.8261937 18.7998384,27.1407681 19.5510793,24.9976229 L52.94747,24.9976229 C54.3126225,28.8918002 58.5764353,30.9423843 62.4709854,29.5773625 C64.6143358,28.8261937 66.2999228,27.1407681 67.0511635,24.9976229 L67.4997718,24.9976229 C67.6589718,24.9976229 67.8166458,24.9676168 67.964656,24.9086218 L72.0133199,23.2842255 C73.8219944,22.5681484 75.0065846,20.817625 74.9999725,18.8733335 L74.9999725,8.74908278 C74.9999725,8.12760123 74.5427176,7.60020648 73.92728,7.51171395 Z M18.1621864,23.8075363 C17.5774777,26.686851 14.7841085,28.5441417 11.9229625,27.9557199 C9.06127857,27.3672982 7.2157076,24.5561906 7.80041635,21.6763346 C8.38566298,18.7970199 11.1790322,16.9397293 14.0401782,17.5281511 C16.5021945,18.0342912 18.2697685,20.2142123 18.2692306,22.7432889 C18.2692306,23.1005642 18.2331906,23.4572982 18.1621864,23.8075363 Z M42.3076923,23.2258065 L20.7690116,23.2258065 C20.7690116,18.7361391 17.1533046,15.0965536 12.6924172,15.0965536 C8.23152979,15.0965536 4.6152751,18.7361391 4.6152751,23.2258065 L1.92307692,23.2258065 L1.92307692,16.5354083 C1.92472021,15.2944651 2.58530833,14.1483429 3.65561464,13.532006 C8.04858075,11.0076707 13.018877,9.67907325 18.0768136,9.67741935 L42.3076923,9.67741935 L42.3076923,23.2258065 Z M40.3846154,7.74193548 L21.1538462,7.74193548 L21.4173119,7.58726395 C27.257467,4.17732486 33.7446139,2.24422964 40.3846154,1.93548387 L40.3846154,7.74193548 Z M43.2692308,1.93548387 L44.0194451,1.93551222 C49.3610153,1.92901547 54.6540455,3.03938834 59.6153846,5.20756844 L57.3010998,7.74193548 L43.2692308,7.74193548 L43.2692308,1.93548387 Z M65.277571,23.8075363 C64.6928624,26.686851 61.8994934,28.5441417 59.0378098,27.9557199 C56.1766641,27.3672982 54.3310934,24.5561906 54.915802,21.6763346 C55.5005107,18.7970199 58.2944176,16.9397293 61.1555632,17.5281511 C63.6175795,18.0342912 65.3851531,20.2142123 65.3846153,22.7432889 C65.3846153,23.1005642 65.3485752,23.4572982 65.277571,23.8075363 Z M73.0769104,11.0602571 L69.2306277,11.0602571 L69.2306277,13.764446 L73.0769104,13.764446 L73.0769104,19.307043 C73.0800405,20.3032362 72.5041153,21.1998651 71.6256208,21.5656678 L67.9483597,23.1229416 C67.9483597,22.9986238 67.9332311,22.8754061 67.925406,22.7510882 C67.917581,22.6267703 67.9149727,22.4809994 67.9024526,22.3456799 C67.8894107,22.2103604 67.8638489,22.075041 67.8435036,21.9402716 C67.8226368,21.8049521 67.8075084,21.6696327 67.7819465,21.546965 C67.7563846,21.4237473 67.7188243,21.2873277 67.6854373,21.1586091 C67.6520504,21.0304407 67.6264884,20.9006221 67.5878848,20.774654 C67.5498027,20.649236 67.5033739,20.5287686 67.4600753,20.4055509 C67.4162548,20.2828832 67.3766079,20.155815 67.3317441,20.0336974 C67.2868803,19.91213 67.2263666,19.8015641 67.1726344,19.6865976 C67.1189022,19.571631 67.0662134,19.4456629 67.0062212,19.3295962 C66.9457073,19.2135294 66.87789,19.1145153 66.8199846,19.0066997 C66.7626007,18.8983342 66.6921751,18.7751164 66.619141,18.6645506 C66.5455854,18.5534345 66.4777682,18.465972 66.4073425,18.3658576 C66.3369169,18.2657433 66.2571012,18.1480263 66.1751988,18.0440613 C66.0932963,17.9400964 66.0166107,17.8586847 65.936795,17.7734224 C65.857501,17.6887103 65.7688168,17.5737437 65.6806544,17.4791301 C65.5919702,17.3845165 65.5048511,17.3097057 65.4166886,17.2260937 C65.3280046,17.1424817 65.2330603,17.0434674 65.1355079,16.9554548 C65.038477,16.8679922 64.9393595,16.8003325 64.8423285,16.7233215 C64.744776,16.6463104 64.6472235,16.5637985 64.5449758,16.4917382 C64.4422066,16.4202278 64.3269173,16.3569687 64.2168446,16.2810579 C64.1062503,16.2051469 64.0165228,16.1457383 63.9127103,16.0879801 C63.8088977,16.0296718 63.6795232,15.9686129 63.5616254,15.9092044 C63.4437277,15.8497959 63.3513918,15.7969883 63.2423625,15.7485813 C63.1333333,15.6996243 62.9857003,15.6484668 62.8578908,15.6000599 C62.7295596,15.5511029 62.6460922,15.5131475 62.5370629,15.4768422 C62.3909949,15.4295354 62.2412752,15.3954305 62.0920773,15.3563749 C61.9945247,15.3321713 61.9011457,15.2997168 61.8025497,15.2782636 C61.645005,15.2441587 61.4832868,15.225456 61.3231337,15.2007025 C61.2281896,15.1875006 61.1374188,15.1654975 61.0424746,15.156146 C60.7858123,15.1291922 60.5296717,15.1143401 60.2604892,15.1143401 C56.013563,15.1187408 52.5720973,18.7476125 52.5679239,23.2258065 L42.3076923,23.2258065 L42.3076923,9.70816262 L56.4100332,9.70816262 C56.7501629,9.70816262 57.0762075,9.56569224 57.3161763,9.31210567 L60.6407877,5.80645161 C62.0362584,6.50670241 63.3931255,7.28946486 64.7051289,8.1508888 C64.8564137,8.25045308 65.0254352,8.31591253 65.2022818,8.34286637 L73.0769104,9.52828686 L73.0769104,11.0602571 Z" id="Shape"></path>
            </g>
        </g>
    </g>
</svg>