<?xml version="1.0" encoding="UTF-8"?>
<svg width="34px" height="32px" viewBox="0 0 34 32" version="1.1" xmlns="http://www.w3.org/2000/svg" xmlns:xlink="http://www.w3.org/1999/xlink">
    <!-- Generator: Sketch 51.3 (57544) - http://www.bohemiancoding.com/sketch -->
    <title>flaticon1552562636-svg</title>
    <desc>Created with Sketch.</desc>
    <defs></defs>
    <g id="H5页面设计" stroke="none" stroke-width="1" fill="none" fill-rule="evenodd">
        <g id="MG品牌历史" transform="translate(-570.000000, -1074.000000)" fill="#FFFFFF" fill-rule="nonzero">
            <g id="flaticon1552562636-svg" transform="translate(570.000000, 1074.000000)">
                <path d="M33.0258913,16.1417183 C32.4847199,16.1417183 32.0517827,16.5668733 32.0517827,17.0983171 L32.0517827,25.7998229 C32.0517827,28.166519 30.0891341,30.0868025 27.6863328,30.0868025 L6.31366723,30.0868025 C3.90365025,30.0868025 1.94821732,28.1594331 1.94821732,25.7998229 L1.94821732,16.9565988 C1.94821732,16.425155 1.51528014,16 0.974108659,16 C0.432937182,16 0,16.425155 0,16.9565988 L0,25.7998229 C0,29.2223206 2.83573854,32 6.31366723,32 L27.6863328,32 C31.1714771,32 34,29.2152347 34,25.7998229 L34,17.0983171 C34,16.5739593 33.5670628,16.1417183 33.0258913,16.1417183 Z" id="Path"></path>
                <path d="M15.7864334,23.7121439 C15.9827586,23.8992504 16.2470425,24 16.5037755,24 C16.7605084,24 17.0247923,23.9064468 17.2211175,23.7121439 L23.699849,17.5376312 C24.1000503,17.1562219 24.1000503,16.5445277 23.699849,16.1631184 C23.2996476,15.7817091 22.6578153,15.7817091 22.2576139,16.1631184 L17.5231563,20.6824588 L17.5231563,0.971514243 C17.5231563,0.431784108 17.0700982,0 16.5037755,0 C15.9374528,0 15.4843947,0.431784108 15.4843947,0.971514243 L15.4843947,20.6824588 L10.7423861,16.1631184 C10.3421847,15.7817091 9.70035238,15.7817091 9.30015102,16.1631184 C8.89994966,16.5445277 8.89994966,17.1562219 9.30015102,17.5376312 L15.7864334,23.7121439 Z" id="Path"></path>
            </g>
        </g>
    </g>
</svg>